<?xml version="1.0" encoding="UTF-8" standalone="no"?>
<!-- Created with Inkscape (http://www.inkscape.org/) -->

<svg
   width="50mm"
   height="50mm"
   viewBox="0 0 50 50"
   version="1.1"
   id="svg1"
   inkscape:version="1.4.3 (1:1.4.3+202512261034+0d15f75042)"
   sodipodi:docname="inugami_default_svg_assets.svg"
   xml:space="preserve"
   xmlns:inkscape="http://www.inkscape.org/namespaces/inkscape"
   xmlns:sodipodi="http://sodipodi.sourceforge.net/DTD/sodipodi-0.dtd"
   xmlns:xlink="http://www.w3.org/1999/xlink"
   xmlns="http://www.w3.org/2000/svg"
   xmlns:svg="http://www.w3.org/2000/svg"><sodipodi:namedview
     id="namedview1"
     pagecolor="#ffffff"
     bordercolor="#666666"
     borderopacity="1.0"
     inkscape:showpageshadow="2"
     inkscape:pageopacity="0.0"
     inkscape:pagecheckerboard="0"
     inkscape:deskcolor="#d1d1d1"
     inkscape:document-units="mm"
     inkscape:zoom="16"
     inkscape:cx="114.5625"
     inkscape:cy="184.375"
     inkscape:window-width="2063"
     inkscape:window-height="1414"
     inkscape:window-x="3467"
     inkscape:window-y="351"
     inkscape:window-maximized="0"
     inkscape:current-layer="layer8"
     showgrid="true"
     showguides="true"><inkscape:grid
       type="axonomgrid"
       id="grid1"
       units="mm"
       originx="-1.7763568e-15"
       originy="3.5527137e-15"
       spacingx="0.99999997"
       spacingy="0.99999997"
       empcolor="#0099e5"
       empopacity="0.30196078"
       color="#0099e5"
       opacity="0.14901961"
       empspacing="5"
       dotted="false"
       gridanglex="30"
       gridanglez="30"
       enabled="true"
       visible="true" /><sodipodi:guide
       position="41.766051,16.276821"
       orientation="0.49999926,0.86602583"
       id="guide3"
       inkscape:locked="false"
       inkscape:label=""
       inkscape:color="rgb(224,27,36)" /><sodipodi:guide
       position="49.999999,-25.999999"
       orientation="-1,0"
       id="guide6"
       inkscape:locked="false"
       inkscape:label=""
       inkscape:color="rgb(224,27,36)" /><sodipodi:guide
       position="50.22947,-25.999999"
       orientation="0,1"
       id="guide7"
       inkscape:locked="false"
       inkscape:label=""
       inkscape:color="rgb(224,27,36)" /><sodipodi:guide
       position="-22.076463,48.222657"
       orientation="0,-1"
       id="guide15"
       inkscape:locked="false" /><sodipodi:guide
       position="39.618858,3.1466715"
       orientation="0,-1"
       id="guide16"
       inkscape:locked="false" /><sodipodi:guide
       position="9.0910083,37.432291"
       orientation="1,0"
       id="guide17"
       inkscape:locked="false" /><sodipodi:guide
       position="42.055024,27.642708"
       orientation="1,0"
       id="guide18"
       inkscape:locked="false" /><sodipodi:guide
       position="24.230303,1.6015091"
       orientation="0,-1"
       id="guide19"
       inkscape:locked="false" /></sodipodi:namedview><defs
     id="defs1"><linearGradient
   id="a"
   x1="-7274.7998"
   y1="2082.5071"
   x2="-7243.8721"
   y2="2046.343"
   gradientTransform="matrix(-0.023,-0.116,-0.116,0.023,79.68,-889.484)"
   gradientUnits="userSpaceOnUse"><stop
     offset="0"
     stop-color="#f69923"
     id="stop1" /><stop
     offset="0.312"
     stop-color="#f79a23"
     id="stop2" /><stop
     offset="0.838"
     stop-color="#e97826"
     id="stop3" /></linearGradient><linearGradient
   id="b"
   x1="-7503.689"
   y1="2086.595"
   x2="-7283.0361"
   y2="2086.595"
   gradientTransform="matrix(-0.023,-0.116,-0.116,0.023,79.68,-889.484)"
   gradientUnits="userSpaceOnUse"><stop
     offset="0.323"
     stop-color="#9e2064"
     id="stop4" /><stop
     offset="0.63"
     stop-color="#c92037"
     id="stop5" /><stop
     offset="0.751"
     stop-color="#cd2335"
     id="stop6" /><stop
     offset="1"
     stop-color="#e97826"
     id="stop7" /></linearGradient><linearGradient
   id="c"
   x1="-7477.0532"
   y1="2064.4199"
   x2="-7345.5659"
   y2="2064.4199"
   gradientTransform="matrix(-0.023,-0.116,-0.116,0.023,79.68,-889.484)"
   gradientUnits="userSpaceOnUse"><stop
     offset="0"
     stop-color="#282662"
     id="stop8" /><stop
     offset="0.095"
     stop-color="#662e8d"
     id="stop9" /><stop
     offset="0.788"
     stop-color="#9f2064"
     id="stop10" /><stop
     offset="0.949"
     stop-color="#cd2032"
     id="stop11" /></linearGradient><linearGradient
   id="d"
   x1="-7491.2959"
   y1="2088.6331"
   x2="-7270.6431"
   y2="2088.6331"
   xlink:href="#b"
   gradientTransform="matrix(0.85714024,0,0,0.85714024,-1.7236616,-1.7142071)" /><linearGradient
   id="e"
   x1="-7475.2031"
   y1="2085.6101"
   x2="-7359.2441"
   y2="2085.6101"
   xlink:href="#c"
   gradientTransform="matrix(0.85714024,0,0,0.85714024,-1.7236616,-1.7142071)" /><linearGradient
   id="f"
   x1="-7491.2959"
   y1="2065.7991"
   x2="-7270.6431"
   y2="2065.7991"
   xlink:href="#b"
   gradientTransform="matrix(0.85714024,0,0,0.85714024,-1.7236616,-1.7142071)" /><linearGradient
   id="g"
   x1="-7504.9839"
   y1="2066.905"
   x2="-7284.3311"
   y2="2066.905"
   xlink:href="#b"
   gradientTransform="matrix(0.85714024,0,0,0.85714024,-1.7236616,-1.7142071)" /><linearGradient
   id="h"
   x1="-7491.2959"
   y1="2058.959"
   x2="-7270.6431"
   y2="2058.959"
   xlink:href="#b"
   gradientTransform="matrix(0.85714024,0,0,0.85714024,-1.7236616,-1.7142071)" /><linearGradient
   id="i"
   x1="-7491.2959"
   y1="2059.762"
   x2="-7270.6431"
   y2="2059.762"
   xlink:href="#b"
   gradientTransform="matrix(0.85714024,0,0,0.85714024,-1.7236616,-1.7142071)" /><linearGradient
   id="j"
   x1="-8307.6318"
   y1="2040.0081"
   x2="-8276.7041"
   y2="2003.844"
   gradientTransform="matrix(0.06342838,-0.09599971,-0.09599971,-0.06342838,738.91665,-666.43503)"
   xlink:href="#a" /><linearGradient
   id="k"
   x1="-8536.5215"
   y1="2044.0959"
   x2="-8315.8682"
   y2="2044.0959"
   gradientTransform="matrix(0.06342838,-0.09599971,-0.09599971,-0.06342838,738.91665,-666.43503)"
   xlink:href="#b" /><linearGradient
   id="l"
   x1="-8509.8848"
   y1="2021.921"
   x2="-8378.3975"
   y2="2021.921"
   gradientTransform="matrix(0.06342838,-0.09599971,-0.09599971,-0.06342838,738.91665,-666.43503)"
   xlink:href="#c" /><linearGradient
   id="m"
   x1="-8524.1279"
   y1="2046.134"
   x2="-8303.4746"
   y2="2046.134"
   gradientTransform="matrix(0.06342838,-0.09599971,-0.09599971,-0.06342838,738.91665,-666.43503)"
   xlink:href="#b" /><linearGradient
   id="n"
   x1="-8508.0352"
   y1="2043.111"
   x2="-8392.0762"
   y2="2043.111"
   gradientTransform="matrix(0.06342838,-0.09599971,-0.09599971,-0.06342838,738.91665,-666.43503)"
   xlink:href="#c" /><linearGradient
   id="o"
   x1="-8524.1279"
   y1="2023.3"
   x2="-8303.4746"
   y2="2023.3"
   gradientTransform="matrix(0.06342838,-0.09599971,-0.09599971,-0.06342838,738.91665,-666.43503)"
   xlink:href="#b" /><linearGradient
   id="p"
   x1="-8537.8164"
   y1="2024.407"
   x2="-8317.1631"
   y2="2024.407"
   gradientTransform="matrix(0.06342838,-0.09599971,-0.09599971,-0.06342838,738.91665,-666.43503)"
   xlink:href="#b" /><linearGradient
   id="q"
   x1="-8524.1279"
   y1="2016.46"
   x2="-8303.4746"
   y2="2016.46"
   gradientTransform="matrix(0.06342838,-0.09599971,-0.09599971,-0.06342838,738.91665,-666.43503)"
   xlink:href="#b" /><linearGradient
   id="r"
   x1="-8524.1279"
   y1="2017.2629"
   x2="-8303.4746"
   y2="2017.2629"
   gradientTransform="matrix(0.06342838,-0.09599971,-0.09599971,-0.06342838,738.91665,-666.43503)"
   xlink:href="#b" />
	

	

	

	

	
	

	
	
	
	
	

	

	

	

	
	
	
	
	

	
	
	
	
	
	
	
	

	

	

	

	
	
	
	
	

	

	

	
	
	
	
	
	
	
	
	
	
	
	
	
	
	
	
	
	
	

	

	

	
	

	

	
	

	
	
	
	
	

	
	

	

	
	

	
	

	
	

	

	
	
	
	

	

	

	
	
	
	
	
	
	
	
<filter
   inkscape:collect="always"
   style="color-interpolation-filters:sRGB"
   id="filter13"
   x="-0.021892349"
   y="-0.037917586"
   width="1.0437847"
   height="1.0758352"><feGaussianBlur
     inkscape:collect="always"
     stdDeviation="0.1983423"
     id="feGaussianBlur13" /></filter></defs><g
     inkscape:groupmode="layer"
     id="layer1"
     inkscape:label="tools"
     style="display:inline"><g
       inkscape:groupmode="layer"
       id="layer5"
       inkscape:label="category"
       style="display:none"><g
         id="g25"
         inkscape:label="default"><g
           id="g26"
           inkscape:label="states"><g
             id="g27"
             inkscape:label="default"><path
               id="path1-72"
               d="M 2.2727273,2.7679702e-7 2.7679702e-7,2.2727273 V 20.454546 L 2.2727273,22.727273 H 20.454544 l 2.272729,-2.272727 V 2.2727273 L 20.454544,2.7679702e-7 Z m 27.2727287,0 L 27.272727,2.2727273 V 20.454546 l 2.272729,2.272727 H 47.727273 L 50,20.454546 V 2.2727273 L 47.727271,2.7679702e-7 Z M 4.5454544,4.5454544 H 18.181817 V 18.181819 H 4.5454544 Z m 27.2727266,0 H 45.454546 V 18.181819 H 31.818181 Z M 2.2727273,27.272727 2.7679702e-7,29.545454 V 47.727273 L 2.2727273,50 H 20.454544 l 2.272729,-2.272727 V 29.545454 l -2.272729,-2.272727 z m 34.0909077,0 v 9.09091 h -9.090908 v 4.545454 h 9.090908 V 50 h 4.545454 V 40.909091 H 50 v -4.545454 h -9.090911 v -9.09091 z M 4.5454544,31.818181 H 18.181817 V 45.454546 H 4.5454544 Z"
               style="display:inline;stroke-width:2.08333" /></g></g></g></g><g
       inkscape:groupmode="layer"
       id="layer6"
       inkscape:label="config"
       style="display:none"><g
         id="g22"
         inkscape:label="default"><g
           id="g23"
           inkscape:label="states"><g
             id="g24"
             inkscape:label="default"><path
               id="path1-80"
               d="M 21.25,2.7679703e-7 19.254556,1.4847023 17.576498,7.0781252 12.434733,4.3094086 9.9739585,4.6705731 4.6705731,9.9739585 4.3094086,12.434733 7.0781252,17.576498 1.4847023,19.254556 2.7679703e-7,21.25 v 7.5 L 1.4847023,30.745606 l 5.5934229,1.678059 -2.7685541,5.141602 0.3611645,2.460775 5.3032229,5.303385 2.4607745,0.361164 5.141765,-2.768716 1.678058,5.593423 L 21.25,50 h 7.5 l 1.995606,-1.484702 1.678059,-5.593423 5.141602,2.768716 2.460775,-0.361491 5.303385,-5.303058 0.361164,-2.460775 L 42.921875,32.42334 48.515298,30.745606 50,28.75 v -7.5 L 48.515298,19.254556 42.921875,17.576498 45.690591,12.434896 45.329427,9.9739585 40.026042,4.6707356 37.565267,4.3095711 32.423665,7.0781252 30.745606,1.4847023 28.75,2.7679703e-7 Z M 22.799967,4.1666669 h 4.400064 l 2.052246,6.8411461 0.956871,0.366048 c 0.250277,0.09577 0.497273,0.198312 0.740885,0.307291 l 0.935871,0.418784 6.289877,-3.3868817 3.111165,3.1111647 -3.386882,6.290039 0.418784,0.935871 c 0.108896,0.243529 0.211458,0.490446 0.307291,0.740723 l 0.366046,0.956869 6.841148,2.052248 v 4.400062 l -6.841148,2.052246 -0.366046,0.956871 c -0.09583,0.250277 -0.198395,0.497225 -0.307291,0.740558 l -0.418784,0.936198 3.386882,6.289877 -3.111165,3.111165 -6.289877,-3.386882 -0.935871,0.418784 c -0.243612,0.108896 -0.490608,0.211458 -0.740885,0.307291 l -0.956871,0.366048 -2.052246,6.841146 h -4.400064 l -2.052246,-6.841146 -0.956869,-0.366048 c -0.250277,-0.09583 -0.497223,-0.198395 -0.740723,-0.307291 L 18.114256,37.900064 11.824219,41.286946 8.7130543,38.175781 12.099936,31.885904 11.681152,30.950033 C 11.572173,30.706421 11.469638,30.459425 11.373861,30.209148 L 11.007813,29.252277 4.1666669,27.200031 v -4.400062 l 6.8411461,-2.052248 0.366048,-0.956869 c 0.09575,-0.250277 0.198312,-0.497223 0.307291,-0.740723 l 0.418784,-0.935871 -3.3870442,-6.290039 3.1111642,-3.1113292 6.29004,3.3870462 0.936033,-0.418784 c 0.243529,-0.108979 0.490446,-0.211514 0.740723,-0.307291 l 0.956869,-0.366048 z M 25,14.583333 c -5.752973,0 -10.416667,4.663694 -10.416667,10.416667 0,5.753056 4.663694,10.416667 10.416667,10.416667 5.753054,0 10.416667,-4.663611 10.416667,-10.416667 C 35.416667,19.247027 30.753054,14.583333 25,14.583333 Z M 25,18.75 c 3.451667,0 6.25,2.798333 6.25,6.25 0,3.451667 -2.798333,6.25 -6.25,6.25 -3.451667,0 -6.25,-2.798333 -6.25,-6.25 0,-3.451667 2.798333,-6.25 6.25,-6.25 z"
               style="display:inline;stroke-width:2.08333" /></g></g></g></g><g
       inkscape:groupmode="layer"
       id="layer7"
       inkscape:label="layer"
       style="display:none"><g
         id="g19"
         inkscape:label="default"><g
           id="g20"
           inkscape:label="states"><g
             id="g21"
             inkscape:label="default"><path
               d="M 50,16.875574 41.896734,20.886014 50,24.896509 41.687749,29.010397 50,33.124287 24.999889,45.497498 0,33.124287 8.3121689,29.010397 0,24.896509 8.1033203,20.886014 0,16.875574 24.999889,4.502502 Z m -37.05057,14.4301 -3.6749381,1.818613 15.7253971,7.782933 15.725483,-7.782933 -3.6748,-1.818613 -12.050683,5.964043 z M 24.999889,29.248729 37.259284,23.18129 40.725372,24.896509 24.999889,32.679437 9.2744919,24.896509 12.740553,23.18129 Z m 0,-20.1560581 -15.7253971,7.7829031 15.7253971,7.782877 15.725483,-7.782877 z"
               id="path1-81"
               fill-rule="evenodd"
               style="display:inline;stroke-width:2.08334" /></g></g></g></g></g><g
     inkscape:groupmode="layer"
     id="layer4"
     inkscape:label="isometric"
     style="display:inline"><g
       inkscape:groupmode="layer"
       id="layer8"
       inkscape:label="desktop"
       style="display:inline"
       attr_title="{{title}}"><g
         id="g9"
         transform="matrix(1.2745192,0,0,1.2745192,-7.0202829,-6.8791989)"
         inkscape:label="90"
         style="display:inline"><g
           id="g14"
           inkscape:label="states"
           style="display:none"><g
             id="g15"
             inkscape:label="default"
             style="display:inline"><path
               id="rect13"
               style="opacity:0.176849;fill:#77767b;stroke-width:0.207921;paint-order:stroke fill markers"
               d="m 34.726314,30.89716 -21.743915,12.553799 2.038644,1.177045 4.756431,-2.746169 4.076882,2.353685 8.154171,-4.70737 -4.076883,-2.354091 8.833314,-5.099853 z"
               class="shadow" /><path
               style="display:inline;fill:#1a5fb4;stroke-width:1.08962"
               inkscape:connector-curvature="0"
               id="left"
               d="m 12.660692,42.060395 c -1.585833,-0.915593 -1.623916,-0.982234 -1.807714,-1.088352 -0.183809,-0.10613 -0.183809,-0.530584 -0.183809,-1.379523 l -0.02397,-17.514264 c 1.1e-5,-1.669996 -0.179625,-1.669996 1.290783,-2.518935 0.716065,0.305193 0.0303,0.693838 1.395557,1.482108"
               class="left"
               sodipodi:nodetypes="cscccc" /><path
               style="display:inline;fill:#babdb6;stroke-width:1.08962"
               inkscape:connector-curvature="0"
               d="m 12.734743,21.491143 -1.865246,-1.0769 0.777907,-0.640516 21.055934,-12.1483298 c 0.723131,-0.4175015 1.172548,-0.4775946 1.353328,-0.3732191 1.049366,0.5675432 0.41724,0.080742 1.741835,0.8455071"
               id="monitor-top"
               class="top" /><path
               style="baseline-shift:baseline;display:inline;overflow:visible;vector-effect:none;fill:#eeeeec;stroke-width:0.78461;stroke-linecap:round;stroke-linejoin:round;enable-background:accumulate;stop-color:#000000"
               d="M 14.039562,20.581969 34.64586,8.6849179 c 1.446273,-0.835003 1.446273,-0.835003 1.446273,0.8350031 v 17.651644 c 0,1.697869 0,1.697869 -1.470409,2.546808 L 14.039562,41.601488 c -1.47041,0.848939 -1.47041,0.848939 -1.47041,-0.848941 V 23.100903 c 1.1e-5,-1.669995 0,-1.669995 1.47041,-2.518934 z"
               id="path4" /><path
               style="baseline-shift:baseline;display:inline;overflow:visible;vector-effect:none;fill:#666666;stroke-width:0.78461;stroke-linecap:round;stroke-linejoin:round;enable-background:accumulate;stop-color:#000000"
               d="m 35.70485,7.9260538 c -0.101606,0.016425 -0.201493,0.052773 -0.312618,0.1026736 -0.22225,0.099801 -0.493533,0.2586436 -0.855102,0.4673944 L 13.930401,20.393991 c -0.735205,0.424469 -1.139322,0.642499 -1.365405,1.0298 -0.226082,0.387301 -0.213004,0.841493 -0.213009,1.67649 v 17.652184 c 0,0.42447 -0.0021,0.743881 0.02299,0.989957 0.01253,0.123037 0.03042,0.229088 0.06743,0.32641 0.037,0.09732 0.10185,0.193335 0.202282,0.25132 0.100432,0.05798 0.215963,0.06566 0.318747,0.04904 0.102785,-0.01662 0.202861,-0.05354 0.315683,-0.104206 0.225645,-0.101325 0.501292,-0.262822 0.868894,-0.475057 L 34.730218,29.907383 c 0.735204,-0.42447 1.141196,-0.643405 1.366936,-1.034398 0.225742,-0.390993 0.21301,-0.852075 0.21301,-1.701009 V 9.5197921 c 0,-0.4175015 1.75e-4,-0.7322583 -0.02452,-0.9746322 -0.01235,-0.121187 -0.02932,-0.2240742 -0.0659,-0.3202801 -0.03658,-0.096206 -0.09954,-0.1937717 -0.199217,-0.2513203 -0.09968,-0.057549 -0.214077,-0.063931 -0.315683,-0.047506 z m 0.09808,0.4260186 c -0.0093,-0.00536 -0.0051,-0.00994 0.0092,0.027584 0.01427,0.037525 0.03113,0.1093336 0.04137,0.2099444 0.0205,0.2012215 0.02145,0.5126899 0.02145,0.9301915 V 27.171976 c 0,0.848934 -0.01291,1.236161 -0.154776,1.48187 -0.141861,0.245709 -0.472359,0.452086 -1.207564,0.876556 L 13.930401,41.412947 c -0.367603,0.212234 -0.642674,0.369222 -0.830583,0.453602 -0.09395,0.04219 -0.166069,0.06543 -0.206879,0.07203 -0.04081,0.0066 -0.03918,-3.28e-4 -0.03065,0.0046 0.0085,0.0049 0.0024,0.0095 -0.01226,-0.02912 -0.01469,-0.03864 -0.03094,-0.11208 -0.04138,-0.214542 -0.02088,-0.204923 -0.02145,-0.522579 -0.02145,-0.947049 V 23.100281 c 5e-6,-0.834998 0.01173,-1.214918 0.153244,-1.457351 0.141517,-0.242433 0.472359,-0.447489 1.207563,-0.871959 L 34.754737,8.8731022 c 0.361568,-0.2087508 0.632276,-0.3630843 0.816791,-0.4459402 0.09226,-0.041428 0.16265,-0.064085 0.202282,-0.070492 0.03963,-0.00641 0.0384,7.635e-4 0.02912,-0.0046 z"
               id="path5" /><path
               style="baseline-shift:baseline;display:inline;overflow:visible;opacity:1;vector-effect:none;fill:#666666;stroke-width:0.78461;stroke-linecap:round;stroke-linejoin:round;enable-background:accumulate;stop-color:#000000;stop-opacity:1"
               d="M 33.562498,6.9989273 C 33.308154,7.0600625 32.999223,7.1887631 32.624644,7.405024 L 12.017915,19.30136 c -0.735205,0.42447 -1.139323,0.644033 -1.365405,1.031334 -0.226082,0.3873 -0.213003,0.841492 -0.213009,1.676489 v 17.652184 c 0,0.42447 -5.54e-4,0.743883 0.02452,0.989957 0.01254,0.123037 0.03042,0.229088 0.06743,0.32641 0.037,0.09732 0.100324,0.193335 0.20075,0.25132 0.188068,0.108583 0.330214,0.183453 1.915551,1.09876 a 0.2179257,0.2179257 0 0 0 0.297294,-0.07969 0.2179257,0.2179257 0 0 0 -0.07969,-0.298826 c -1.586327,-0.915878 -1.736022,-0.993575 -1.915551,-1.097228 0.0085,0.0049 0.004,0.0095 -0.01073,-0.02912 -0.01469,-0.03864 -0.03094,-0.113613 -0.04138,-0.216073 -0.02088,-0.20492 -0.02299,-0.521046 -0.02299,-0.945516 V 22.009183 c 6e-6,-0.834998 0.01326,-1.214918 0.154777,-1.457351 0.141517,-0.242433 0.472359,-0.44749 1.207563,-0.871959 L 32.842251,7.7820045 c 0.348563,-0.2012406 0.626582,-0.3113984 0.82292,-0.3585912 0.19634,-0.047193 0.305631,-0.017826 0.312619,-0.013792 a 0.2179475,0.2179475 0 0 0 0.0061,0.00307 c 0.528521,0.2858476 0.676783,0.3433198 0.838244,0.4168238 0.161462,0.073504 0.352882,0.1690559 1.012944,0.5501462 a 0.2179257,0.2179257 0 0 0 0.297303,-0.07969 0.2179257,0.2179257 0 0 0 -0.07969,-0.2972935 C 35.388193,7.6190115 35.176221,7.5130017 35.002992,7.4341404 34.831071,7.3558743 34.707826,7.3071369 34.196928,7.0311085 34.023136,6.9307673 33.816843,6.937792 33.562498,6.9989273 Z"
               id="monitor-line-side" /><path
               style="display:inline;fill:#3e3e3e;stroke-width:1.08962"
               inkscape:connector-curvature="0"
               d="M 13.638011,22.234813 35.341848,9.7041225 V 28.227785 L 13.638011,40.758497 Z"
               id="monitor_screen"
               class="screen" /><path
               style="display:inline;fill:#1a5fb4;stroke:none;stroke-width:0.435851;stroke-linecap:round;stroke-linejoin:round;stroke-miterlimit:4;stroke-opacity:1"
               inkscape:connector-curvature="0"
               d="m 20.435957,37.923331 0.943638,-0.544814 v 2.179255 c 0,1.089627 0,1.089627 0.94365,1.634441 l 1.887288,1.089626 v 1.089628 l -2.830938,-1.634441 c -0.943638,-0.544813 -0.943638,-0.544813 -0.943638,-1.63444 z"
               id="monitor_foot_side"
               class="left" /><path
               style="display:inline;fill:#babdb6;stroke-width:1.08962"
               inkscape:connector-curvature="0"
               id="monitor_footer_top"
               d="m 28.08904,36.785858 c 0,0 0.36193,0.337839 0.839721,0.592659 l 1.887289,1.089627 -6.605517,3.813695 -1.887288,-1.089626 C 21.850259,40.91743 21.496687,40.574329 21.496687,40.574329 Z"
               class="top" /><path
               style="baseline-shift:baseline;display:inline;overflow:visible;opacity:1;vector-effect:none;fill:#666666;stroke-width:0.78461;stroke-linecap:round;stroke-linejoin:round;enable-background:accumulate;stop-color:#000000;stop-opacity:1"
               d="m 27.875611,33.376828 -6.60482,3.812713 a 0.2179475,0.2179475 0 0 0 -0.108803,0.18849 v 2.17913 c 0,0.540403 -0.01365,0.849228 0.145582,1.126344 0.159234,0.277116 0.432433,0.422331 0.905673,0.69726 a 0.2179475,0.2179475 0 0 0 0.0016,0 l 1.886434,1.089566 a 0.2179475,0.2179475 0 0 0 0.217607,0 l 6.606352,-3.812713 a 0.2179475,0.2179475 0 0 0 0,-0.378513 l -1.887967,-1.089564 a 0.2179475,0.2179475 0 0 0 -0.0061,-0.0031 c -0.477342,-0.254565 -0.678203,-0.379645 -0.75396,-0.510302 -0.07576,-0.130658 -0.08628,-0.373803 -0.07356,-0.927127 a 0.2179475,0.2179475 0 0 0 0,-0.0046 v -2.17913 a 0.2179475,0.2179475 0 0 0 -0.327942,-0.18849 z m -0.108804,0.567003 v 1.800618 c -0.01274,0.549788 -0.02935,0.870301 0.133323,1.150863 0.163531,0.282036 0.447298,0.420732 0.925594,0.675806 l 1.553895,0.896478 -6.169606,3.562924 -1.777631,-1.026735 c -0.472732,-0.274635 -0.670201,-0.405452 -0.746299,-0.537886 -0.0761,-0.132435 -0.08888,-0.368023 -0.08888,-0.908738 v -2.05347 z"
               id="monitor_footer_border" /><path
               style="display:inline;fill:#99c1f1;stroke-width:1.08962"
               sodipodi:nodetypes="ccccccc"
               class="front"
               d="m 21.379595,37.378517 6.605516,-3.813695 v 2.179254 c -0.01275,0.554239 0.394826,1.186953 0.514468,1.393296 -6.592354,3.78847 0.134318,0.09839 -6.469259,3.892355 -0.227971,0.06167 -0.650703,-0.931391 -0.650703,-1.471955 z"
               id="path5350"
               inkscape:connector-curvature="0" /><path
               id="path5354"
               style="display:inline;fill:#62a0ea;stroke-width:1.08962"
               class="top"
               d="m 33.870528,7.2078573 c -0.236562,-0.00756 -0.624967,0.1044959 -1.167315,0.417622 L 11.647361,19.773819 10.869692,20.414443 12.7348,21.49134 35.798482,8.0978382 C 34.473887,7.3330728 35.105999,7.8195954 34.056633,7.2520522 34.011439,7.2259585 33.949382,7.2103777 33.870528,7.2078573 Z m -5.78143,29.5781787 -6.592345,3.788197 c 0,0 0.353338,0.343135 0.826324,0.617918 l 1.887408,1.089872 6.605726,-3.81374 -1.887408,-1.089872 c -0.477792,-0.25482 -0.839705,-0.592375 -0.839705,-0.592375 z" /><path
               style="baseline-shift:baseline;display:inline;overflow:visible;vector-effect:none;fill:#99c1f1;stroke-width:0.78461;stroke-linecap:round;stroke-linejoin:round;enable-background:accumulate;stop-color:#000000"
               d="M 14.039562,20.581969 34.64586,8.6849179 c 1.446273,-0.835003 1.446273,-0.835003 1.446273,0.8350031 v 17.651644 c 0,1.697869 0,1.697869 -1.470409,2.546808 L 14.039562,41.601488 c -1.470409,0.848939 -1.470409,0.848939 -1.470409,-0.848941 V 23.100903 c 1.1e-5,-1.669995 0,-1.669995 1.470409,-2.518934 z"
               id="path1"
               class="front" /><path
               style="baseline-shift:baseline;display:inline;overflow:visible;vector-effect:none;fill:#666666;stroke-width:0.78461;stroke-linecap:round;stroke-linejoin:round;enable-background:accumulate;stop-color:#000000"
               d="m 35.703666,7.9268867 c -0.101606,0.016425 -0.199961,0.052773 -0.311086,0.1026735 -0.22225,0.099801 -0.493533,0.2586436 -0.855102,0.4673944 L 13.930749,20.393292 c -0.735204,0.424469 -1.139322,0.642499 -1.365404,1.0298 -0.226083,0.387301 -0.214537,0.843025 -0.214542,1.678023 v 17.652183 c 0,0.42447 -5.53e-4,0.743881 0.02452,0.989957 0.01254,0.123037 0.03043,0.227555 0.06743,0.324877 0.037,0.09732 0.100318,0.194868 0.20075,0.252853 0.100431,0.05798 0.215964,0.06412 0.318748,0.04751 0.102784,-0.01662 0.204393,-0.05354 0.317215,-0.104206 0.225644,-0.101325 0.501292,-0.26129 0.868894,-0.473524 l 20.58221,-11.88408 c 0.735204,-0.424469 1.141196,-0.643405 1.366937,-1.034398 0.225741,-0.390992 0.213009,-0.852074 0.213009,-1.701008 V 9.520625 c 0,-0.4175016 1.75e-4,-0.7322584 -0.02452,-0.9746323 -0.01235,-0.1211869 -0.02932,-0.2256066 -0.06589,-0.3218126 -0.03658,-0.096206 -0.09954,-0.1922392 -0.199221,-0.2497877 -0.09968,-0.057549 -0.215609,-0.063931 -0.317215,-0.047506 z m 0.09808,0.424486 c -0.0093,-0.00536 -0.0035,-0.00994 0.01073,0.027584 0.01426,0.037525 0.0296,0.1093337 0.03984,0.2099444 0.0205,0.2012215 0.02145,0.5142223 0.02145,0.9317239 v 17.650652 c 0,0.848934 -0.01291,1.237693 -0.154776,1.483402 -0.141861,0.24571 -0.470827,0.450554 -1.206031,0.875024 l -20.58221,11.882544 c -0.367602,0.212235 -0.642674,0.370755 -0.830582,0.455135 -0.09396,0.04219 -0.16607,0.0639 -0.20688,0.07049 -0.04081,0.0066 -0.03918,0.0012 -0.03065,0.0061 0.0085,0.0049 0.0024,0.008 -0.01226,-0.03065 -0.01469,-0.03864 -0.03094,-0.11208 -0.04137,-0.214542 -0.02088,-0.204923 -0.02145,-0.521046 -0.02145,-0.945516 V 23.101115 c 6e-6,-0.834998 0.01173,-1.214919 0.153245,-1.457352 0.141516,-0.242433 0.472358,-0.449021 1.207562,-0.873491 L 34.755085,8.873935 c 0.361569,-0.2087507 0.632276,-0.3646167 0.816791,-0.4474727 0.09226,-0.041428 0.162651,-0.062553 0.202282,-0.06896 0.03963,-0.00641 0.03687,-7.689e-4 0.02759,-0.00613 z"
               id="path2" /><path
               style="baseline-shift:baseline;display:inline;overflow:visible;vector-effect:none;fill:#666666;stroke-width:0.78461;stroke-linecap:round;stroke-linejoin:round;enable-background:accumulate;stop-color:#000000"
               d="m 33.562846,6.9997602 c -0.254345,0.061135 -0.563275,0.1883033 -0.937854,0.4045643 L 12.018263,19.302194 c -0.735205,0.424469 -1.139323,0.642499 -1.365405,1.0298 -0.226082,0.3873 -0.213004,0.843025 -0.213009,1.678022 v 17.650651 c 0,0.42447 -0.0021,0.745415 0.02299,0.991489 0.01254,0.123037 0.03196,0.227556 0.06896,0.324878 0.037,0.09732 0.100323,0.194867 0.200749,0.252852 0.188068,0.108583 0.330214,0.181921 1.915551,1.097228 a 0.2179257,0.2179257 0 0 0 0.297293,-0.07969 0.2179257,0.2179257 0 0 0 -0.07969,-0.297293 c -1.586327,-0.915878 -1.736023,-0.995107 -1.915552,-1.098761 0.0085,0.0049 0.0024,0.0095 -0.01226,-0.02912 -0.01469,-0.03864 -0.03094,-0.112082 -0.04138,-0.214542 -0.02088,-0.204919 -0.02145,-0.522579 -0.02145,-0.947049 v -17.65065 c 5e-6,-0.834998 0.01326,-1.214918 0.154776,-1.457351 0.141518,-0.242432 0.470827,-0.449022 1.206031,-0.873492 L 32.842598,7.7828373 c 0.348563,-0.2012406 0.626583,-0.3129308 0.822921,-0.3601235 0.196339,-0.047193 0.305631,-0.017826 0.312618,-0.013792 a 0.2179475,0.2179475 0 0 0 0.0061,0.00307 c 0.528521,0.2858477 0.676784,0.3448523 0.838245,0.4183563 0.161462,0.073504 0.351349,0.1690558 1.011411,0.5501462 a 0.2179257,0.2179257 0 0 0 0.298835,-0.07969 0.2179257,0.2179257 0 0 0 -0.07969,-0.2988259 C 35.388541,7.6183118 35.175036,7.5123021 35.001807,7.4334408 34.829626,7.3550567 34.708601,7.3090865 34.195743,7.0319414 34.021951,6.9316001 33.81719,6.9386249 33.562846,6.9997602 Z"
               id="path5358" /><path
               style="display:inline;fill:#3e3e3e;stroke-width:1.08962"
               class="screen"
               id="path5360"
               d="M 13.638012,22.234814 35.341849,9.7041225 V 28.227785 L 13.638012,40.758497 Z"
               inkscape:connector-curvature="0" /><path
               style="display:inline;fill:#99c1f1;stroke:none;stroke-width:0.435851;stroke-linecap:round;stroke-linejoin:round;stroke-miterlimit:4;stroke-opacity:1"
               class="front"
               d="m 24.154347,42.204278 6.605517,-3.813695 v 1.089627 l -6.605517,3.813695 z"
               id="path5364"
               inkscape:connector-curvature="0" /><path
               style="baseline-shift:baseline;display:inline;overflow:visible;opacity:1;vector-effect:none;fill:#666666;stroke-width:0.78461;stroke-linecap:round;stroke-linejoin:round;enable-background:accumulate;stop-color:#000000;stop-opacity:1"
               d="m 27.875611,33.376828 -6.60482,3.812713 a 0.2179475,0.2179475 0 0 0 -0.108803,0.18849 v 2.17913 c 0,0.540403 -0.01365,0.849228 0.145582,1.126344 0.159234,0.277116 0.432433,0.422331 0.905673,0.69726 a 0.2179475,0.2179475 0 0 0 0.0016,0 l 1.886434,1.089566 a 0.2179475,0.2179475 0 0 0 0.217607,0 l 6.606352,-3.812713 a 0.2179475,0.2179475 0 0 0 0,-0.378513 l -1.887967,-1.089564 a 0.2179475,0.2179475 0 0 0 -0.0061,-0.0031 c -0.477342,-0.254565 -0.678203,-0.379645 -0.75396,-0.510302 -0.07576,-0.130658 -0.08628,-0.373803 -0.07356,-0.927127 a 0.2179475,0.2179475 0 0 0 0,-0.0046 v -2.17913 a 0.2179475,0.2179475 0 0 0 -0.327942,-0.18849 z m -0.108804,0.567003 v 1.800618 c -0.01274,0.549788 -0.02935,0.870301 0.133323,1.150863 0.163531,0.282036 0.447298,0.420732 0.925594,0.675806 l 1.553895,0.896478 -6.169606,3.562924 -1.777631,-1.026735 c -0.472732,-0.274635 -0.670201,-0.405452 -0.746299,-0.537886 -0.0761,-0.132435 -0.08888,-0.368023 -0.08888,-0.908738 v -2.05347 z"
               id="path5368" /><text
               xml:space="preserve"
               style="font-size:2.76793px;line-height:1.25;font-family:sans-serif;text-align:center;text-anchor:middle;display:inline;stroke-width:0.207595"
               x="14.754444"
               y="42.302017"
               id="text1"
               inkscape:transform-center-x="-8.1781808"
               inkscape:transform-center-y="-7.0765439"
               transform="matrix(1.0671188,-0.61453914,0.14122207,0.85577492,0,0)"
               class="text"><tspan
                 sodipodi:role="line"
                 id="tspan1"
                 style="font-style:normal;font-variant:normal;font-weight:bold;font-stretch:normal;font-size:2.76793px;font-family:Roboto;-inkscape-font-specification:'Roboto Bold';fill:#ffffff;stroke-width:0.207595"
                 x="14.754444"
                 y="42.302017">{{title}}</tspan></text><path
               style="baseline-shift:baseline;display:inline;overflow:visible;opacity:1;vector-effect:none;fill:#666666;stroke-width:0.78461;stroke-linecap:round;stroke-linejoin:round;enable-background:accumulate;stop-color:#000000;stop-opacity:1"
               d="m 21.270791,37.189541 -0.943983,0.545549 a 0.2179475,0.2179475 0 0 0 -0.108804,0.18849 v 2.17913 c 0,0.544814 -0.01278,0.853995 0.147115,1.130941 0.159895,0.276948 0.433854,0.420258 0.905672,0.692664 l 2.830418,1.633581 a 0.2179475,0.2179475 0 0 0 0.327943,-0.188489 v -1.089566 a 0.2179475,0.2179475 0 0 0 -0.110336,-0.18849 l -1.886435,-1.089565 c -0.471825,-0.272407 -0.670282,-0.401626 -0.746298,-0.53329 -0.07601,-0.131663 -0.08888,-0.368521 -0.08888,-0.913334 v -2.179131 a 0.2179475,0.2179475 0 0 0 -0.32641,-0.18849 z m -0.108803,0.565471 v 1.80215 c 0,0.544813 -0.01278,0.853994 0.147114,1.130941 0.159897,0.276947 0.433848,0.420256 0.905673,0.692663 l 1.777631,1.026735 v 0.586925 l -2.504008,-1.446624 c -0.471819,-0.272406 -0.670283,-0.401626 -0.746299,-0.533289 -0.07601,-0.131664 -0.08888,-0.366989 -0.08888,-0.911803 v -2.05347 z"
               id="path3" /><path
               style="baseline-shift:baseline;display:inline;overflow:visible;opacity:1;vector-effect:none;fill:#666666;stroke-width:0.78461;stroke-linecap:round;stroke-linejoin:round;enable-background:accumulate;stop-color:#000000;stop-opacity:1"
               d="m 30.707561,38.279105 -6.606352,3.814246 a 0.2179475,0.2179475 0 0 0 -0.108803,0.18849 v 1.089565 a 0.2179475,0.2179475 0 0 0 0.32641,0.18849 l 6.606352,-3.812712 a 0.2179475,0.2179475 0 0 0 0.108803,-0.190023 v -1.089565 a 0.2179475,0.2179475 0 0 0 -0.32641,-0.188491 z m -0.108803,0.567004 v 0.585392 l -6.169606,3.561392 v -0.586925 z"
               id="monitor_front_light_2" /></g></g></g><g
         id="g10"
         inkscape:label="default"
         transform="matrix(1.2745192,0,0,1.2745192,-7.020283,-6.8791989)"
         style="display:inline"><g
           id="g11"
           inkscape:label="states"
           style="display:inline"><g
             id="g12"
             inkscape:label="default"
             style="display:inline"><path
               id="rect13-3"
               style="display:inline;opacity:0.176849;fill:#77767b;stroke-width:0.207921;paint-order:stroke fill markers;filter:url(#filter13)"
               d="m 36.085313,43.451049 -19.705495,-11.377195 -2.038243,1.177271 6.263792,3.616402 -3.545825,2.660474 7.622776,4.401012 3.928585,-2.439488 5.435934,3.138438 z"
               class="shadow"
               sodipodi:nodetypes="ccccccccc" /><path
               style="display:inline;fill:#eeeeec;stroke-width:1.38837"
               sodipodi:nodetypes="ccccccc"
               class="light"
               d="m 27.838257,40.752352 -8.416523,-4.85928 v 2.776732 c 0.01625,0.706192 -0.503075,1.512374 -0.655516,1.775289 8.39975,4.82714 -0.171145,0.125375 8.242907,4.959506 0.290474,0.07859 0.829104,-1.186746 0.829104,-1.875515 z"
               id="path5466-1"
               inkscape:connector-curvature="0"
               transform="matrix(0.78460961,0,0,0.78460961,5.5081814,5.3974855)" /><path
               style="display:inline;fill:#555753;stroke-width:1.38837"
               class="shadow"
               d="m 38.938505,46.789134 c 2.020613,-1.166617 2.069137,-1.25153 2.303327,-1.386742 0.234203,-0.135227 0.234203,-0.676051 0.234203,-1.75774 l 0.03054,-22.316078 c -1.4e-5,-2.127851 0.228872,-2.127851 -1.644672,-3.209541 L 13.409986,2.8014159 C 12.488596,2.2694496 11.915965,2.1928812 11.685621,2.3258727 10.348555,3.049017 11.663269,2.306991 9.9755847,3.2814294"
               id="path5468-2"
               inkscape:connector-curvature="0"
               transform="matrix(0.78460961,0,0,0.78460961,5.5081814,5.3974855)" /><path
               style="display:inline;fill:#babdb6;stroke-width:1.38837"
               class="top"
               id="path5470-9"
               d="M 38.853232,20.509202 41.229865,19.137053 40.238682,18.32093 13.40993,2.8419423 C 12.488542,2.309976 11.915909,2.2334076 11.685565,2.3663991 10.3485,3.0895434 11.153933,2.4692771 9.4661798,3.4437154"
               inkscape:connector-curvature="0"
               transform="matrix(0.78460961,0,0,0.78460961,5.5081814,5.3974855)" /><path
               style="baseline-shift:baseline;display:inline;overflow:visible;vector-effect:none;fill:#eeeeec;stroke-linecap:round;stroke-linejoin:round;enable-background:accumulate;stop-color:#000000"
               d="M 37.190677,19.350763 10.934835,4.1919474 C 9.0920434,3.128015 9.0920434,3.128015 9.0920434,5.2558798 V 27.747003 c 0,2.163365 0,2.163365 1.8735436,3.245054 l 26.22509,15.14106 c 1.873545,1.08169 1.873545,1.08169 1.873545,-1.081691 V 22.560305 c -1.4e-5,-2.127852 0,-2.127852 -1.873545,-3.209542 z"
               id="path6"
               transform="matrix(0.78460961,0,0,0.78460961,5.5081814,5.3974855)" /><path
               style="baseline-shift:baseline;display:inline;overflow:visible;vector-effect:none;fill:#666666;stroke-linecap:round;stroke-linejoin:round;enable-background:accumulate;stop-color:#000000"
               d="M 9.5859375,3.2265625 C 9.4564748,3.2056339 9.3105992,3.213783 9.1835938,3.2871094 9.0565883,3.3604357 8.9762942,3.4828865 8.9296875,3.6054688 8.8830808,3.728051 8.8594824,3.8592596 8.84375,4.0136719 8.8122852,4.3224964 8.8144531,4.7238932 8.8144531,5.2558594 V 27.746094 c 0,1.081682 -0.016147,1.669779 0.2714844,2.167968 0.2876314,0.49819 0.8034626,0.777515 1.7402345,1.31836 l 26.226562,15.140625 c 0.468387,0.270422 0.819915,0.476363 1.107422,0.605469 0.143754,0.06455 0.27138,0.111641 0.402344,0.132812 0.130964,0.02117 0.278284,0.01138 0.40625,-0.0625 0.127966,-0.07388 0.208712,-0.196308 0.255859,-0.320312 0.04715,-0.124005 0.06996,-0.259245 0.08594,-0.416016 0.03195,-0.313541 0.03125,-0.720874 0.03125,-1.261719 V 22.560547 c -7e-6,-1.063926 0.01658,-1.643234 -0.271485,-2.136719 C 38.782248,19.930343 38.266853,19.65022 37.33008,19.109375 L 11.074219,3.9511719 C 10.613521,3.6851888 10.265605,3.4845848 9.9824219,3.3574219 9.8408304,3.2938404 9.7154002,3.2474911 9.5859375,3.2265625 Z m -0.125,0.5410156 c -0.011831,0.00683 -0.013388,-0.0023 0.037109,0.00586 0.050497,0.00816 0.1402614,0.037058 0.2578125,0.089844 0.2351021,0.1055722 0.580318,0.3023762 1.041016,0.5683593 L 37.052734,19.591797 c 0.936773,0.540845 1.356793,0.802428 1.53711,1.111328 0.180316,0.3089 0.197258,0.793495 0.197265,1.857422 v 22.490234 c 0,0.540845 -0.0027,0.945925 -0.0293,1.207031 -0.0133,0.130554 -0.03401,0.224203 -0.05273,0.273438 -0.01872,0.04924 -0.02454,0.04339 -0.01367,0.03711 0.01087,-0.0063 0.01098,0.0025 -0.04102,-0.0059 -0.052,-0.0084 -0.143959,-0.03804 -0.263672,-0.0918 -0.239427,-0.107514 -0.588255,-0.307702 -1.056641,-0.578125 L 11.103516,30.751953 C 10.166744,30.211109 9.7471607,29.949793 9.5664063,29.636719 9.3856518,29.323645 9.3691406,28.827776 9.3691406,27.746094 V 5.2558594 c 0,-0.5319662 0.00122,-0.9291573 0.027344,-1.1855469 0.013061,-0.1281948 0.034555,-0.2197649 0.052734,-0.2675781 0.018179,-0.047813 0.02355,-0.041987 0.011719,-0.035156 z"
               id="path7"
               transform="matrix(0.78460961,0,0,0.78460961,5.5081814,5.3974855)" /><path
               style="baseline-shift:baseline;display:inline;overflow:visible;opacity:1;vector-effect:none;fill:#666666;stroke-linecap:round;stroke-linejoin:round;enable-background:accumulate;stop-color:#000000;stop-opacity:1"
               d="m 12.314453,2.0449219 c -0.324077,-0.077896 -0.5852,-0.086835 -0.80664,0.041016 -0.653467,0.353129 -0.807957,0.4118443 -1.027344,0.5117188 -0.220723,0.100482 -0.4911812,0.2357568 -1.3378909,0.7246089 A 0.27767301,0.27767301 0 0 0 9.0410156,3.7011719 0.27767301,0.27767301 0 0 0 9.4199219,3.8027344 C 10.260951,3.317162 10.505209,3.1971719 10.710938,3.1035156 10.916666,3.0098593 11.105873,2.9345299 11.779297,2.5703125 a 0.27770077,0.27770077 0 0 0 0.0059,-0.00391 c 0.0089,-0.00514 0.150223,-0.042553 0.400391,0.017578 0.250168,0.060131 0.602748,0.2006173 1.046875,0.4570312 L 39.488281,18.201172 c 0.936772,0.540845 1.358746,0.802428 1.539063,1.111328 0.180316,0.3089 0.195305,0.793496 0.195312,1.857422 v 22.490234 c 0,0.540845 -7.39e-4,0.94593 -0.02734,1.207031 -0.0133,0.130551 -0.03401,0.224203 -0.05273,0.273438 -0.01872,0.04924 -0.02648,0.04338 -0.01563,0.03711 -0.228748,0.132072 -0.420162,0.231458 -2.441406,1.398438 a 0.27767301,0.27767301 0 0 0 -0.101563,0.380859 0.27767301,0.27767301 0 0 0 0.378907,0.101563 c 2.019983,-1.166252 2.201776,-1.262036 2.441406,-1.400391 0.12796,-0.07388 0.20871,-0.196308 0.255859,-0.320312 0.04715,-0.124005 0.07192,-0.259246 0.08789,-0.416016 0.03195,-0.31354 0.0293,-0.720874 0.0293,-1.261719 V 21.169922 c -7e-6,-1.063925 0.01658,-1.643234 -0.271485,-2.136719 -0.288066,-0.493485 -0.803461,-0.771655 -1.740234,-1.3125 L 13.509766,2.5605469 C 13.03249,2.2849946 12.63853,2.1228184 12.314453,2.0449219 Z"
               id="path5474-1"
               transform="matrix(0.78460961,0,0,0.78460961,5.5081814,5.3974855)" /><path
               style="display:inline;fill:#3e3e3e;stroke-width:1.38837"
               class="screen"
               id="path5476-9"
               d="M 37.702318,21.456762 10.04803,5.4905831 V 29.092802 l 27.654288,15.966205 z"
               inkscape:connector-curvature="0"
               transform="matrix(0.78460961,0,0,0.78460961,5.5081814,5.3974855)" /><path
               style="display:inline;fill:#99c1f1;stroke:none;stroke-width:0.555346;stroke-linecap:round;stroke-linejoin:round;stroke-miterlimit:4;stroke-opacity:1"
               class="front"
               id="path5478-4"
               d="m 29.04061,41.446535 -1.202353,-0.694183 v 2.776731 c 0,1.388367 0,1.388367 -1.202366,2.082549 l -2.40472,1.388366 v 1.388366 l 3.607086,-2.082548 c 1.202353,-0.694184 1.202353,-0.694184 1.202353,-2.082549 z"
               inkscape:connector-curvature="0"
               transform="matrix(0.78460961,0,0,0.78460961,5.5081814,5.3974855)" /><path
               style="baseline-shift:baseline;display:inline;overflow:visible;vector-effect:none;fill:#eeeeec;stroke-linecap:round;stroke-linejoin:round;enable-background:accumulate;stop-color:#000000"
               d="m 24.231171,46.999998 -8.416522,-4.85928 v 1.388365 l 8.416522,4.859281 z"
               id="path8"
               transform="matrix(0.78460961,0,0,0.78460961,5.5081814,5.3974855)" /><path
               style="baseline-shift:baseline;display:inline;overflow:visible;vector-effect:none;fill:#666666;stroke-linecap:round;stroke-linejoin:round;enable-background:accumulate;stop-color:#000000"
               d="m 15.953125,41.900391 a 0.27770077,0.27770077 0 0 0 -0.416016,0.240234 v 1.388672 a 0.27770077,0.27770077 0 0 0 0.138672,0.240234 l 8.416016,4.859375 a 0.27770077,0.27770077 0 0 0 0.417969,-0.240234 V 47 a 0.27770077,0.27770077 0 0 0 -0.140625,-0.240234 z m 0.138672,0.720703 7.861328,4.539062 v 0.748047 l -7.861328,-4.539062 z"
               id="path9"
               transform="matrix(0.78460961,0,0,0.78460961,5.5081814,5.3974855)" /><path
               style="display:inline;fill:#babdb6;stroke-width:1.38837"
               class="top"
               d="m 19.289312,39.997206 c 0,0 -0.46116,0.430463 -1.069945,0.755146 l -2.404718,1.388366 8.416522,4.85928 2.40472,-1.388366 c 0.602661,-0.350118 1.053172,-0.787287 1.053172,-0.787287 z"
               id="path5482-8"
               inkscape:connector-curvature="0"
               transform="matrix(0.78460961,0,0,0.78460961,5.5081814,5.3974855)" /><path
               style="baseline-shift:baseline;display:inline;overflow:visible;opacity:1;vector-effect:none;fill:#666666;stroke-linecap:round;stroke-linejoin:round;enable-background:accumulate;stop-color:#000000;stop-opacity:1"
               d="m 19.560547,35.652344 a 0.27770077,0.27770077 0 0 0 -0.416016,0.240234 v 2.777344 a 0.27770077,0.27770077 0 0 0 0,0.0059 c 0.01622,0.705026 8.27e-4,1.015161 -0.0957,1.181641 -0.09653,0.166479 -0.352726,0.326031 -0.960937,0.65039 a 0.27770077,0.27770077 0 0 0 -0.0078,0.0039 l -2.404297,1.388672 a 0.27770077,0.27770077 0 0 0 0,0.480468 l 8.416016,4.859375 a 0.27770077,0.27770077 0 0 0 0.277344,0 l 2.40625,-1.388672 c 0.602985,-0.350305 0.951406,-0.53558 1.154296,-0.888671 0.202891,-0.353092 0.185547,-0.745031 0.185547,-1.433594 v -2.777344 a 0.27770077,0.27770077 0 0 0 -0.138672,-0.240234 z m 0.138672,0.720703 7.861328,4.539062 v 2.617188 c 0,0.688961 -0.01437,0.987507 -0.111328,1.15625 -0.09696,0.168743 -0.350786,0.335616 -0.953125,0.685547 l -2.265625,1.308593 -7.861328,-4.539062 1.980468,-1.142578 0.0078,-0.0059 c 0.602066,-0.320876 0.964901,-0.49851 1.171875,-0.855468 0.208367,-0.359361 0.186193,-0.765313 0.169922,-1.472657 z"
               id="path5484-4"
               transform="matrix(0.78460961,0,0,0.78460961,5.5081814,5.3974855)" /><path
               style="display:inline;fill:#1a5fb4;stroke-width:1.38837"
               inkscape:connector-curvature="0"
               id="path5486-5"
               d="m 27.838257,40.752352 -8.416523,-4.85928 v 2.776732 c 0.01625,0.706192 -0.503075,1.512374 -0.655516,1.775289 8.39975,4.82714 -0.171145,0.125375 8.242907,4.959506 0.290474,0.07859 0.829104,-1.186746 0.829104,-1.875515 z"
               class="left"
               sodipodi:nodetypes="ccccccc"
               transform="matrix(0.78460961,0,0,0.78460961,5.5081814,5.3974855)" /><path
               style="display:inline;fill:#99c1f1;stroke-width:1.38837"
               inkscape:connector-curvature="0"
               id="path5488-0"
               d="m 38.938505,46.789134 c 2.020613,-1.166617 2.069137,-1.25153 2.303327,-1.386742 0.234203,-0.135227 0.234203,-0.676051 0.234203,-1.75774 l 0.03054,-22.316078 c -1.4e-5,-2.127851 0.228872,-2.127851 -1.644672,-3.209541 -2.622813,-0.619034 -2.622813,0.380966 -2.671226,1.23173"
               class="front"
               sodipodi:nodetypes="cscccc"
               transform="matrix(0.78460961,0,0,0.78460961,5.5081814,5.3974855)" /><path
               id="path5490-3"
               style="display:inline;fill:#99c1f1;stroke-width:1.38837"
               class="top"
               d="m 11.922786,2.3099365 c -0.100473,0.00321 -0.179608,0.02308 -0.237194,0.056327 -1.337065,0.7231443 -0.53175,0.1030153 -2.2195031,1.0774536 L 38.853442,20.509342 41.230042,19.136816 40.238888,18.320846 13.410034,2.841687 C 12.718993,2.4427123 12.224206,2.3003015 11.922786,2.3099365 Z m 7.366476,37.6871055 c 0,0 -0.460917,0.430826 -1.069702,0.755509 l -2.405021,1.388029 8.41654,4.859652 2.405021,-1.388546 c 0.602661,-0.350118 1.053166,-0.787549 1.053166,-0.787549 z"
               transform="matrix(0.78460961,0,0,0.78460961,5.5081814,5.3974855)" /><path
               style="baseline-shift:baseline;display:inline;overflow:visible;vector-effect:none;fill:#1a5fb4;stroke-linecap:round;stroke-linejoin:round;enable-background:accumulate;stop-color:#000000"
               d="M 37.190677,19.350763 10.934835,4.1919474 C 9.0920434,3.128015 9.0920434,3.128015 9.0920434,5.2558798 V 27.747003 c 0,2.163365 0,2.163365 1.8735436,3.245054 l 26.22509,15.14106 c 1.873545,1.08169 1.873545,1.08169 1.873545,-1.081691 V 22.560305 c -1.4e-5,-2.127852 0,-2.127852 -1.873545,-3.209542 z"
               id="path16"
               class="left"
               transform="matrix(0.78460961,0,0,0.78460961,5.5081814,5.3974855)" /><path
               style="baseline-shift:baseline;display:inline;overflow:visible;vector-effect:none;fill:#666666;stroke-linecap:round;stroke-linejoin:round;enable-background:accumulate;stop-color:#000000"
               d="M 9.5859375,3.2265625 C 9.4564748,3.2056339 9.3105992,3.213783 9.1835938,3.2871094 9.0565883,3.3604357 8.9762942,3.4828865 8.9296875,3.6054688 8.8830808,3.728051 8.8594824,3.8592596 8.84375,4.0136719 8.8122852,4.3224964 8.8144531,4.7238932 8.8144531,5.2558594 V 27.746094 c 0,1.081682 -0.016147,1.669779 0.2714844,2.167968 0.2876314,0.49819 0.8034626,0.777515 1.7402345,1.31836 l 26.226562,15.140625 c 0.468387,0.270422 0.819915,0.476363 1.107422,0.605469 0.143754,0.06455 0.27138,0.111641 0.402344,0.132812 0.130964,0.02117 0.278284,0.01138 0.40625,-0.0625 0.127966,-0.07388 0.208712,-0.196308 0.255859,-0.320312 0.04715,-0.124005 0.06996,-0.259245 0.08594,-0.416016 0.03195,-0.313541 0.03125,-0.720874 0.03125,-1.261719 V 22.560547 c -7e-6,-1.063926 0.01658,-1.643234 -0.271485,-2.136719 C 38.782248,19.930343 38.266853,19.65022 37.33008,19.109375 L 11.074219,3.9511719 C 10.613521,3.6851888 10.265605,3.4845848 9.9824219,3.3574219 9.8408304,3.2938404 9.7154002,3.2474911 9.5859375,3.2265625 Z m -0.125,0.5410156 c -0.011831,0.00683 -0.013388,-0.0023 0.037109,0.00586 0.050497,0.00816 0.1402614,0.037058 0.2578125,0.089844 0.2351021,0.1055722 0.580318,0.3023762 1.041016,0.5683593 L 37.052734,19.591797 c 0.936773,0.540845 1.356793,0.802428 1.53711,1.111328 0.180316,0.3089 0.197258,0.793495 0.197265,1.857422 v 22.490234 c 0,0.540845 -0.0027,0.945925 -0.0293,1.207031 -0.0133,0.130554 -0.03401,0.224203 -0.05273,0.273438 -0.01872,0.04924 -0.02454,0.04339 -0.01367,0.03711 0.01087,-0.0063 0.01098,0.0025 -0.04102,-0.0059 -0.052,-0.0084 -0.143959,-0.03804 -0.263672,-0.0918 -0.239427,-0.107514 -0.588255,-0.307702 -1.056641,-0.578125 L 11.103516,30.751953 C 10.166744,30.211109 9.7471607,29.949793 9.5664063,29.636719 9.3856518,29.323645 9.3691406,28.827776 9.3691406,27.746094 V 5.2558594 c 0,-0.5319662 0.00122,-0.9291573 0.027344,-1.1855469 0.013061,-0.1281948 0.034555,-0.2197649 0.052734,-0.2675781 0.018179,-0.047813 0.02355,-0.041987 0.011719,-0.035156 z"
               id="path17"
               transform="matrix(0.78460961,0,0,0.78460961,5.5081814,5.3974855)" /><path
               style="baseline-shift:baseline;display:inline;overflow:visible;opacity:1;vector-effect:none;fill:#666666;stroke-linecap:round;stroke-linejoin:round;enable-background:accumulate;stop-color:#000000;stop-opacity:1"
               d="m 12.314453,2.0449219 c -0.324077,-0.077896 -0.5852,-0.086835 -0.80664,0.041016 -0.653467,0.353129 -0.807957,0.4118443 -1.027344,0.5117188 -0.220723,0.100482 -0.4911812,0.2357568 -1.3378909,0.7246089 A 0.27767301,0.27767301 0 0 0 9.0410156,3.7011719 0.27767301,0.27767301 0 0 0 9.4199219,3.8027344 C 10.260951,3.317162 10.505209,3.1971719 10.710938,3.1035156 10.916666,3.0098593 11.105873,2.9345299 11.779297,2.5703125 a 0.27770077,0.27770077 0 0 0 0.0059,-0.00391 c 0.0089,-0.00514 0.150223,-0.042553 0.400391,0.017578 0.250168,0.060131 0.602748,0.2006173 1.046875,0.4570312 L 39.488281,18.201172 c 0.936772,0.540845 1.358746,0.802428 1.539063,1.111328 0.180316,0.3089 0.195305,0.793496 0.195312,1.857422 v 22.490234 c 0,0.540845 -7.39e-4,0.94593 -0.02734,1.207031 -0.0133,0.130551 -0.03401,0.224203 -0.05273,0.273438 -0.01872,0.04924 -0.02648,0.04338 -0.01563,0.03711 -0.228748,0.132072 -0.420162,0.231458 -2.441406,1.398438 a 0.27767301,0.27767301 0 0 0 -0.101563,0.380859 0.27767301,0.27767301 0 0 0 0.378907,0.101563 c 2.019983,-1.166252 2.201776,-1.262036 2.441406,-1.400391 0.12796,-0.07388 0.20871,-0.196308 0.255859,-0.320312 0.04715,-0.124005 0.07192,-0.259246 0.08789,-0.416016 0.03195,-0.31354 0.0293,-0.720874 0.0293,-1.261719 V 21.169922 c -7e-6,-1.063925 0.01658,-1.643234 -0.271485,-2.136719 -0.288066,-0.493485 -0.803461,-0.771655 -1.740234,-1.3125 L 13.509766,2.5605469 C 13.03249,2.2849946 12.63853,2.1228184 12.314453,2.0449219 Z"
               id="path5494-1"
               transform="matrix(0.78460961,0,0,0.78460961,5.5081814,5.3974855)" /><path
               style="display:inline;fill:#3e3e3e;stroke-width:1.38837"
               inkscape:connector-curvature="0"
               d="M 37.702318,21.456762 10.04803,5.4905831 V 29.092802 l 27.654288,15.966205 z"
               id="path5496-0"
               class="screen"
               transform="matrix(0.78460961,0,0,0.78460961,5.5081814,5.3974855)" /><path
               style="baseline-shift:baseline;display:inline;overflow:visible;opacity:1;vector-effect:none;fill:#666666;stroke-width:0.78461;stroke-linecap:round;stroke-linejoin:round;enable-background:accumulate;stop-color:#000000;stop-opacity:1"
               d="m 27.458861,37.18337 a 0.21788669,0.21788669 0 0 0 -0.326409,0.188489 v 2.179131 c 0,0.544663 -0.01288,0.780175 -0.08888,0.911802 -0.076,0.131627 -0.274605,0.260959 -0.746299,0.53329 l -1.886435,1.089565 a 0.21788669,0.21788669 0 0 0 -0.108803,0.18849 v 1.089566 a 0.21788669,0.21788669 0 0 0 0.32641,0.188489 l 2.830417,-1.633581 c 0.47169,-0.272332 0.745823,-0.415793 0.905673,-0.692664 0.15985,-0.27687 0.147114,-0.586278 0.147114,-1.130941 v -2.177597 a 0.21788669,0.21788669 0 0 0 -0.108803,-0.188491 z m 0.108804,0.56547 0.50877,0.294229 v 2.051937 c 0,0.544663 -0.01288,0.781709 -0.08888,0.913335 -0.076,0.131627 -0.27461,0.259425 -0.746299,0.531757 l -2.502475,1.445092 v -0.585393 l 1.777631,-1.026735 c 0.471694,-0.272331 0.744288,-0.415793 0.904139,-0.692663 0.159853,-0.27687 0.147115,-0.584746 0.147115,-1.129409 z"
               id="path5498-6" /><path
               style="baseline-shift:baseline;display:inline;overflow:visible;vector-effect:none;fill:#1a5fb4;stroke:none;stroke-linecap:round;stroke-linejoin:round;enable-background:accumulate;stop-color:#000000"
               d="m 24.231171,46.999998 -8.416522,-4.85928 v 1.388365 l 8.416522,4.859281 z"
               id="path18"
               class="left"
               transform="matrix(0.78460961,0,0,0.78460961,5.5081814,5.3974855)" /><path
               style="baseline-shift:baseline;display:inline;overflow:visible;opacity:1;vector-effect:none;fill:#666666;stroke-linecap:round;stroke-linejoin:round;enable-background:accumulate;stop-color:#000000;stop-opacity:1"
               d="m 19.560547,35.652344 a 0.27770077,0.27770077 0 0 0 -0.416016,0.240234 v 2.777344 a 0.27770077,0.27770077 0 0 0 0,0.0059 c 0.01622,0.705026 8.27e-4,1.015161 -0.0957,1.181641 -0.09653,0.166479 -0.352726,0.326031 -0.960937,0.65039 a 0.27770077,0.27770077 0 0 0 -0.0078,0.0039 l -2.404297,1.388672 a 0.27770077,0.27770077 0 0 0 0,0.480468 l 8.416016,4.859375 a 0.27770077,0.27770077 0 0 0 0.277344,0 l 2.40625,-1.388672 c 0.602985,-0.350305 0.951406,-0.53558 1.154296,-0.888671 0.202891,-0.353092 0.185547,-0.745031 0.185547,-1.433594 v -2.777344 a 0.27770077,0.27770077 0 0 0 -0.138672,-0.240234 z m 0.138672,0.720703 7.861328,4.539062 v 2.617188 c 0,0.688961 -0.01437,0.987507 -0.111328,1.15625 -0.09696,0.168743 -0.350786,0.335616 -0.953125,0.685547 l -2.265625,1.308593 -7.861328,-4.539062 1.980468,-1.142578 0.0078,-0.0059 c 0.602066,-0.320876 0.964901,-0.49851 1.171875,-0.855468 0.208367,-0.359361 0.186193,-0.765313 0.169922,-1.472657 z"
               id="path5504-0"
               transform="matrix(0.78460961,0,0,0.78460961,5.5081814,5.3974855)" /><text
               xml:space="preserve"
               style="font-size:3.52778px;line-height:1.25;font-family:sans-serif;text-align:center;text-anchor:middle;display:inline;stroke-width:0.264584"
               x="21.735899"
               y="10.827146"
               id="text2-6"
               transform="matrix(0.87001686,0.51253479,-0.06649282,0.66841502,5.5081814,5.3974855)"
               class="text"><tspan
                 sodipodi:role="line"
                 id="tspan2-1"
                 style="font-style:normal;font-variant:normal;font-weight:bold;font-stretch:normal;font-size:3.52778px;font-family:Roboto;-inkscape-font-specification:'Roboto Bold';fill:#ffffff;stroke-width:0.264584"
                 x="21.735899"
                 y="10.827146">{{title}}</tspan></text></g></g></g></g></g><g
     inkscape:groupmode="layer"
     id="layer9"
     inkscape:label="isometric 1" /></svg>
